<?xml version="1.0" encoding="UTF-8"?>
<svg id="Layer_2" data-name="Layer 2" xmlns="http://www.w3.org/2000/svg" xmlns:xlink="http://www.w3.org/1999/xlink" viewBox="0 0 562.63 592.23">
  <defs>
    <style>
      .cls-1 {
        fill: url(#linear-gradient);
      }

      .cls-2 {
        fill: #fbb26f;
      }

      .cls-3 {
        fill: #fff;
      }
    </style>
    <linearGradient id="linear-gradient" x1="113.65" y1="1190.38" x2="447.86" y2="607.39" gradientTransform="translate(0 1194.28) scale(1 -1)" gradientUnits="userSpaceOnUse">
      <stop offset="0" stop-color="#f8951d"/>
      <stop offset="1" stop-color="#f26322"/>
    </linearGradient>
  </defs>
  <g id="Layer_1-2" data-name="Layer 1">
    <g>
      <path class="cls-1" d="M435.98,592.15l-308.21.07C59.37,590.39-.04,529.08,0,462.88L.22,128.94C.27,60.9,59.46,1.68,127.52.51L433.41,0c25.31-.04,49.02,8.94,69.38,22.66,36.42,24.54,59.57,65.11,59.6,109.36l.24,327.68c-1.21,69.93-56.14,128.06-126.65,132.45ZM438.43,421c15.42-12.47,15.48-31.91,6.13-48.25l-69.7-121.9,36.61-61.93c6.39-10.8,7.65-22.89,1.69-34.65-4.54-8.95-14.45-16.52-25.79-17.63-15.05-1.48-27.26,6.76-34.82,19.42l-42.18,70.58c-9.08,15.2-9.83,30.64-1.23,45.75l77.11,135.5c5.52,9.7,12.43,16.27,21.48,18.87,11.26,3.23,22.17,1.12,30.7-5.77ZM315.57,425.58c22.5-9.62,26.67-34.55,15.36-54.17l-126.81-219.97c-9.31-16.15-32.07-18.69-46.36-9.91-15.15,9.3-21.94,29.01-12.74,45.18l94.57,166.13,33.76,59.26c8.22,14.42,26.82,20.06,42.22,13.48ZM179.82,422.83c15.62-9.69,22.1-28.04,16.64-44.57-3.94-11.91-13.06-20.6-23-24.26-13.06-4.81-26.05-2.26-36.04,5.62-16.38,12.94-19.79,34.85-8.61,51.74,10.83,16.35,33.31,22.43,51,11.46Z"/>
      <path class="cls-3" d="M315.57,425.58c-15.39,6.58-34,.94-42.22-13.48l-33.76-59.26-94.57-166.13c-9.2-16.16-2.41-35.88,12.74-45.18,14.29-8.77,37.05-6.23,46.36,9.91l126.81,219.97c11.31,19.62,7.15,44.55-15.36,54.17Z"/>
      <path class="cls-2" d="M438.43,421c-8.53,6.89-19.44,9.01-30.7,5.77-9.05-2.6-15.96-9.17-21.48-18.87l-77.11-135.5c-8.6-15.11-7.85-30.55,1.23-45.75l42.18-70.58c7.56-12.65,19.77-20.9,34.82-19.42,11.34,1.11,21.25,8.68,25.79,17.63,5.96,11.75,4.7,23.84-1.69,34.65l-36.61,61.93,69.7,121.9c9.35,16.34,9.29,35.78-6.13,48.25Z"/>
      <path class="cls-3" d="M179.82,422.83c-17.69,10.96-40.17,4.89-51-11.46-11.19-16.89-7.77-38.8,8.61-51.74,9.98-7.89,22.98-10.43,36.04-5.62,9.94,3.66,19.06,12.35,23,24.26,5.46,16.52-1.02,34.88-16.64,44.57Z"/>
    </g>
  </g>
</svg>